<svg enable-background="new 0 0 181.6 79.5" height="280" viewBox="0 0 181.6 79.5" width="500" xmlns="http://www.w3.org/2000/svg"><g fill="#fff"><path d="m32.7 64.6h-29.1v-16.4l27.6-44.1h19.3v43.4h6.9v17.1h-6.9v12.1h-17.8zm1.4-17.2v-21l-12.4 21z"/><path d="m90.7 1.4c18.9 0 26.2 15.5 26.2 37.3 0 22.1-7.3 37.5-26.2 37.5s-26.1-15.4-26.1-37.5c0-21.7 7.2-37.3 26.1-37.3zm0 18.7c-7.8 0-8.7 8.5-8.7 18.7 0 10.5.9 18.9 8.7 18.9s8.7-8.4 8.7-18.9c0-10.2-.9-18.7-8.7-18.7z"/><path d="m153.9 64.6h-29.1v-16.4l27.6-44.2h19.3v43.4h6.9v17.1h-6.9v12.1h-17.8zm1.3-17.2v-21l-12.4 21.1h12.4z"/></g></svg>