<svg enable-background="new 0 0 512.12 512.12" viewBox="0 0 512.12 512.12" xmlns="http://www.w3.org/2000/svg"><g fill="#4caf50"><path d="m74.727 170.787c-17.673 0-32 14.327-32 32v149.333c0 17.673 14.327 32 32 32s32-14.327 32-32v-149.333c0-17.673-14.327-32-32-32z"/><path d="m437.393 170.787c-17.673 0-32 14.327-32 32v149.333c0 17.673 14.327 32 32 32s32-14.327 32-32v-149.333c0-17.673-14.326-32-32-32z"/><path d="m373.393 170.787h-234.666c-5.891 0-10.667 4.776-10.667 10.667v170.666c-.005 25.348 17.831 47.197 42.667 52.267v75.733c0 17.673 14.327 32 32 32s32-14.327 32-32v-74.667h42.667v74.667c0 17.673 14.327 32 32 32s32-14.327 32-32v-75.733c24.836-5.07 42.672-26.919 42.667-52.267v-170.666c-.001-5.891-4.777-10.667-10.668-10.667z"/><path d="m333.607 44.323 26.005-25.984c4.237-4.093 4.354-10.845.262-15.083-4.093-4.237-10.845-4.354-15.083-.262-.089.086-.176.173-.262.262l-30.293 30.294c-37.102-16.117-79.229-16.117-116.331 0l-30.293-30.315c-4.237-4.093-10.99-3.975-15.083.262-3.992 4.134-3.992 10.687 0 14.82l25.984 26.005c-31.677 20.96-50.649 56.481-50.453 94.464 0 5.891 4.776 10.667 10.667 10.667h234.667c5.891 0 10.667-4.776 10.667-10.667.195-37.982-18.777-73.503-50.454-94.463z"/></g><circle cx="202.727" cy="96.12" fill="#fafafa" r="10.667"/><circle cx="309.393" cy="96.12" fill="#fafafa" r="10.667"/></svg>