<svg enable-background="new 0 0 512 512" viewBox="0 0 512 512" xmlns="http://www.w3.org/2000/svg"><path d="m332.242 81.127c16.308-19.711 27.769-46.482 27.194-73.75-.097-4.579-4.274-7.979-8.802-7.288-23.927 3.656-50.674 18.641-67.23 38.024-15.259 17.643-28.801 45.061-27.783 72.23.153 4.094 3.612 7.357 7.707 7.241 26.409-.747 52.482-16.561 68.914-36.457" fill="#d6d6d8"/><path d="m276.227 110.343c-1.579-42.121 30.2-91.319 81.782-107.18-1.619-2.226-4.418-3.525-7.374-3.074-23.927 3.656-50.674 18.641-67.23 38.024-15.259 17.643-28.802 45.062-27.783 72.23.153 4.094 3.612 7.357 7.707 7.241 5.121-.145 10.228-.862 15.255-2.06-1.385-1.312-2.281-3.143-2.357-5.181z" fill="#c2c2c4"/><path d="m459.704 372.704c-16.579-8.347-62.333-37.152-62.899-101.034-.484-52.293 34.216-82.7 48.977-93.317 3.504-2.521 4.274-7.454 1.61-10.851-12.265-15.635-26.606-25.664-40.382-32.165.008-.001.018-.003.026-.004-1.784-.843-4.839-2.181-7.284-3.144-69.32-27.287-113.006 14.538-139.469 14.538-20.261 0-51.526-22.893-84.652-22.268-43.529.632-83.623 25.322-106.07 64.282-34.438 59.774-23.081 141.486 3.75 205.168 0 .001-.001.001-.001.002.687 1.629 1.781 4.164 2.693 6.211.001-.002.001-.003.002-.005 7.773 17.456 16.672 33.408 26.047 46.968 21.527 31.115 47.208 66.167 80.951 64.879 32.477-1.288 44.755-20.998 84.003-20.998 39.223 0 50.287 20.998 84.627 20.373 34.957-.663 57.093-31.753 78.473-63.016 18.817-27.47 29.198-54.282 33.358-66.353 1.24-3.598-.359-7.554-3.76-9.266z" fill="#d6d6d8"/><path d="m122.657 447.086c-9.375-13.56-18.274-29.512-26.047-46.968-.001.001-.001.003-.002.005-.911-2.046-1.996-4.56-2.693-6.211 0 0 .001-.001.001-.002-26.666-63.288-38.311-145.183-3.75-205.168 20.731-35.98 56.515-59.773 96.154-63.702-3.534-.425-7.099-.647-10.688-.58-43.529.632-83.623 25.322-106.07 64.282-34.438 59.774-23.081 141.486 3.75 205.168 0 .001-.001.002-.001.002.687 1.629 1.781 4.164 2.693 6.211.001-.002.002-.003.002-.005 7.773 17.456 16.672 33.408 26.046 46.968 21.527 31.115 47.208 66.167 80.951 64.879 3.32-.132 6.42-.464 9.368-.94-28.308-5.741-50.644-36.375-69.714-63.939z" fill="#c2c2c4"/></svg>