<svg enable-background="new 0 0 200 200" viewBox="0 0 200 200" xmlns="http://www.w3.org/2000/svg"><path d="m164.4 146.6c-3.8-4.2-35.9-39-58.9-42.5v-25.9c0-.2 0-.5-.1-.7 0-.6.1-1.2.1-1.8 0-19.2-15.6-34.8-34.8-34.8-1.8 0-3.6.1-5.3.4l-4 .6-.6 4c-.3 1.7-.4 3.5-.4 5.3 0 18.9 15.2 34.3 34 34.8v19c-22.4 6.5-52.5 37.6-56.1 41.5-2.1 2.2-2 5.8.2 7.9 1.1 1 2.5 1.5 3.8 1.5 1.5 0 3-.6 4-1.7 10.2-10.7 39.9-38.5 55.2-39.2h.5c13.5 0 40.3 23.9 54.1 39.1 2.1 2.3 5.6 2.5 7.9.4s2.5-5.6.4-7.9zm-92.8-94.6c12.4.4 22.4 10.4 22.8 22.8-12.4-.4-22.4-10.4-22.8-22.8z" fill="#00b2ff"/></svg>