<svg enable-background="new 0 0 200 200" viewBox="0 0 200 200" xmlns="http://www.w3.org/2000/svg"><path d="m163.4 158.6c-3.7-4.1-34.2-36.9-56.6-41.5v-34.8h.4c23.1 0 41.9-18.8 41.9-41.9 0-2.2-.2-4.3-.5-6.4l-.6-3.9-3.9-.6c-2-.3-4.2-.5-6.4-.5-15.6 0-29.2 8.6-36.5 21.3-7.2-12.7-20.8-21.3-36.5-21.3-2.2 0-4.3.2-6.4.5l-3.9.6-.5 3.9c-.3 2.1-.5 4.1-.5 6.4 0 23.1 18.8 41.9 42 41.9h.4v35.1c-22.1 5.6-52.8 37.3-56.5 41.1-2.1 2.2-2 5.7.2 7.8 1.1 1 2.4 1.5 3.8 1.5 1.5 0 2.9-.6 4-1.7 10-10.5 39.2-37.9 54.3-38.6h.5c13.3 0 39.6 23.5 53.2 38.5 2 2.2 5.5 2.4 7.8.4 2.1-2 2.3-5.5.3-7.8zm-25.6-118.7h.4v.4c0 17.2-14.1 31.2-31.4 31 0-.1 0-.3 0-.4 0-17.1 13.9-31 31-31zm-42 31.4c-17.4.2-31.4-13.8-31.4-31 0-.1 0-.3 0-.4h.4c17.1 0 31 13.9 31 31z" fill="#00b2ff"/></svg>