<svg enable-background="new 0 0 200 200" viewBox="0 0 200 200" xmlns="http://www.w3.org/2000/svg"><path d="m162.7 184.7c-3.6-4-33.9-36.6-56.1-41.1 0-.2.1-.3.1-.5v-42.1h.4c22.9 0 41.5-18.6 41.5-41.5 0-2.1-.2-4.3-.5-6.3l-.6-3.9-3.9-.6c-2-.3-4.1-.5-6.3-.5-6.8 0-13.2 1.7-18.8 4.6 5.2-14.6 2-31.6-9.7-43.3-1.5-1.5-3.1-2.9-4.8-4.1l-3.1-2.4-3.2 2.3c-1.7 1.2-3.3 2.6-4.8 4.1-11.6 11.6-14.8 28.3-9.9 42.8-5.4-2.6-11.4-4.1-17.8-4.1-2.2 0-4.2.2-6.3.5l-3.9.7-.6 3.9c-.3 2-.5 4.1-.5 6.3 0 22.9 18.6 41.5 41.5 41.5h.4v42c0 .3 0 .5.1.8-21.9 5.4-52.4 36.9-56 40.7-2.1 2.2-2 5.6.2 7.7 1.1 1 2.4 1.5 3.7 1.5 1.4 0 2.9-.6 3.9-1.7 9.9-10.4 38.8-37.5 53.7-38.2h.5c13.2 0 39.2 23.2 52.7 38.1 2 2.2 5.5 2.4 7.7.4 2.3-2 2.5-5.4.4-7.6zm-24.9-125.7v.4c0 17-13.9 30.9-31.1 30.6 0-.1 0-.3 0-.4 0-16.9 13.8-30.6 30.6-30.6zm-37.2-41.9c.1-.1.2-.2.3-.3.1.1.2.2.3.3 12 12 12 31.7-.3 43.6-.1-.1-.2-.2-.3-.3-12-11.9-12-31.3 0-43.3zm-35.8 42.3c0-.1 0-.3 0-.4h.4c16.9 0 30.6 13.7 30.6 30.6v.4c-17.2.3-31-13.5-31-30.6z" fill="#00b2ff"/></svg>