<svg enable-background="new 0 0 508 508" viewBox="0 0 508 508" xmlns="http://www.w3.org/2000/svg"><path d="m367.05 292.5c12.2-98.2-20.3-199.7-93.3-272.7l-19.8-19.8-19.9 19.8c-72.9 72.9-105.4 174.5-93.3 272.7-17.9 24.3-27.5 53-27.5 83.1 0 22.5 5.2 44 15.6 64.1l15.6 29.9v-34.2c0-21.3 6.4-42 18-59.7 5.2 12.6 11.1 25 18 37.1l2.4 4.2h142.3l2.4-4.2c6.8-12.1 12.8-24.5 18-37.1 11.6 17.7 18 38.5 18 59.9l-1.7 37.8 17.3-33.6c10.3-20.1 15.6-41.7 15.6-64.1-.2-30.2-9.7-58.9-27.7-83.2zm-121.3-261 8.2-8.2 8.2 8.1c19.2 19.2 35.4 40.5 48.6 63.2h-113.6c13.2-22.6 29.4-43.9 48.6-63.1zm-113.2 370.2c-1.8-8.5-2.8-17.2-2.8-26.1 0-20.8 5.1-40.7 14.8-58.7.1.5.2 1 .4 1.5 2.6 12.7 6 25.3 10.2 37.7.2.3.2.6.3.9-10.6 13.3-18.3 28.5-22.9 44.7zm215.3-93.3c-.2 1-.4 1.9-.6 2.9-.8 4.2-1.7 8.4-2.7 12.5-.2.7-.3 1.5-.5 2.2-2.5 10.1-5.4 20-8.9 29.8l-.2.6c-5.3 15.1-11.8 29.8-19.6 44.1h-122.9c-7.9-14.4-14.4-29.2-19.8-44.4l-.1-.2c-3.4-9.7-6.4-19.6-8.9-29.7-.2-.8-.4-1.6-.6-2.4-1-4.1-1.9-8.2-2.7-12.4-.2-1-.4-2-.6-3-.9-4.7-1.7-9.5-2.3-14.3 0-.2-.1-.5-.1-.7-8.3-62.2 2.3-125.9 30.7-182.2h131.5c28.4 56.5 39.1 120.5 30.6 182.9-.7 4.8-1.4 9.5-2.3 14.3zm27.4 93.2c-4.5-16.2-12.3-31.4-22.9-44.7.1-.3.2-.6.3-.8 4.2-12.4 7.5-25 10.2-37.7.1-.5.3-1 .4-1.6 9.8 18 14.9 38 14.9 58.8-.1 8.9-1 17.5-2.9 26z"/><path d="m253.95 168.8c-31.9 0-57.9 26-57.9 57.9s26 57.9 57.9 57.9 57.9-26 57.9-57.9-26-57.9-57.9-57.9zm0 99.3c-22.8 0-41.4-18.6-41.4-41.4s18.6-41.4 41.4-41.4 41.4 18.6 41.4 41.4-18.6 41.4-41.4 41.4z"/><path d="m245.65 425.3h16.5v57.9h-16.5z"/><path d="m287.05 450.1h16.5v57.9h-16.5z"/><path d="m204.35 450.1h16.5v57.9h-16.5z"/></svg>