<svg enable-background="new 0 0 512 512" viewBox="0 0 512 512" xmlns="http://www.w3.org/2000/svg"><g fill="#fff"><path d="m263.432 3.136c-4.16-4.171-10.914-4.179-15.085-.019-.006.006-.013.013-.019.019l-192 192c-4.093 4.237-3.975 10.99.262 15.083 4.134 3.992 10.687 3.992 14.82 0l173.803-173.803v464.917c0 5.891 4.776 10.667 10.667 10.667s10.667-4.776 10.667-10.667v-464.917l173.781 173.781c4.093 4.237 10.845 4.355 15.083.262 4.237-4.093 4.354-10.845.262-15.083-.086-.089-.173-.176-.262-.262z"/><path d="m447.88 213.333c-2.831.005-5.548-1.115-7.552-3.115l-184.448-184.469-184.448 184.47c-4.237 4.093-10.99 3.975-15.083-.262-3.992-4.134-3.992-10.687 0-14.82l192-192c4.165-4.164 10.917-4.164 15.083 0l192 192c4.159 4.172 4.149 10.926-.024 15.085-1.999 1.992-4.706 3.111-7.528 3.111z"/><path d="m255.88 512c-5.891 0-10.667-4.776-10.667-10.667v-490.666c0-5.891 4.776-10.667 10.667-10.667s10.667 4.776 10.667 10.667v490.667c-.001 5.89-4.776 10.666-10.667 10.666z"/></g></svg>